<?xml version="1.0" standalone="no"?>
<!DOCTYPE svg PUBLIC "-//W3C//DTD SVG 20010904//EN"
 "http://www.w3.org/TR/2001/REC-SVG-20010904/DTD/svg10.dtd">
<svg version="1.0" xmlns="http://www.w3.org/2000/svg"
 width="512.000000pt" height="512.000000pt" viewBox="0 0 512.000000 512.000000"
 preserveAspectRatio="xMidYMid meet">
<metadata>
Created by potrace 1.16, written by Peter Selinger 2001-2019
</metadata>
<g transform="translate(0.000000,512.000000) scale(0.100000,-0.100000)"
fill="#000000" stroke="none">
<path d="M1583 3220 c0 -25 2 -35 4 -22 2 12 2 32 0 45 -2 12 -4 2 -4 -23z"/>
<path d="M1612 3007 c-1 -169 -5 -256 -12 -252 -6 4 -11 63 -12 138 l-2 132
-7 -130 c-13 -212 -12 -206 -48 -221 -29 -12 -31 -16 -31 -67 l0 -54 -56 -22
c-31 -11 -74 -24 -95 -27 l-39 -7 -2 254 -2 254 -7 -230 c-8 -299 -7 -285 -19
-285 -6 0 -11 129 -12 363 0 213 -4 335 -8 297 -4 -36 -8 -202 -9 -368 -1
-295 -2 -304 -21 -309 -17 -5 -20 -14 -20 -59 0 -90 20 -114 96 -114 23 0 33
-5 37 -19 8 -33 74 -44 190 -31 56 6 239 13 407 15 302 4 304 4 185 -10 -66
-8 -235 -21 -375 -30 -269 -17 -512 -39 -595 -54 -39 -7 -52 -6 -60 6 -12 16
-46 14 -300 -17 -130 -15 -134 -17 -152 -55 -9 -19 -26 -36 -40 -39 -21 -6
-23 -12 -23 -69 0 -57 -4 -70 -45 -137 -48 -81 -47 -88 17 -89 22 -1 28 -8 40
-42 7 -23 17 -42 23 -42 5 -1 21 18 34 42 28 51 40 41 17 -13 -13 -32 -13 -37
2 -45 13 -7 14 -12 3 -24 -10 -13 -9 -17 8 -27 16 -8 20 -17 15 -34 -4 -16 0
-25 10 -29 9 -4 16 -13 16 -20 0 -8 14 -27 31 -43 18 -16 46 -44 64 -61 17
-18 36 -33 41 -33 5 0 17 -8 25 -17 9 -10 25 -23 35 -30 16 -10 1 -12 -78 -12
-54 -1 -98 -5 -98 -10 0 -5 55 -12 122 -15 535 -28 920 -49 1193 -67 338 -22
686 -22 1360 1 149 5 398 12 555 16 179 5 268 11 240 15 -25 4 -78 8 -117 8
-40 1 -73 5 -73 9 0 5 38 26 85 47 46 20 119 60 161 87 62 41 79 59 95 95 21
50 24 82 9 133 -11 38 -1 51 33 42 19 -5 19 -4 -4 38 -31 56 -117 123 -199
156 -36 14 -78 32 -95 39 -20 9 -124 17 -315 25 -311 13 -364 17 -224 19 l92
1 26 35 c18 23 35 35 51 35 13 0 25 4 27 9 2 6 111 19 243 30 311 27 424 41
432 54 4 7 -15 8 -58 3 -97 -10 -560 -46 -595 -46 -24 0 -46 13 -96 59 l-65
60 -148 11 c-131 11 -150 14 -166 33 -16 20 -25 21 -195 22 -151 0 -184 -3
-213 -17 -19 -10 -50 -17 -70 -17 l-36 2 35 7 c19 4 26 8 16 9 -19 1 -19 1 0
22 10 11 31 28 47 37 l29 17 -5 100 c-6 102 -15 122 -60 138 -24 8 4 20 140
59 291 82 374 100 405 89 29 -10 38 -9 225 34 12 3 24 14 28 24 5 16 43 29
213 70 348 84 443 104 454 93 6 -6 16 -9 22 -6 6 2 71 15 145 29 140 26 160
37 161 83 0 36 -28 81 -55 88 -13 3 -88 -7 -165 -22 -125 -26 -141 -31 -146
-51 -4 -16 -17 -24 -52 -32 -26 -6 -168 -38 -317 -71 -220 -50 -276 -59 -302
-52 -24 7 -55 5 -120 -9 -116 -26 -121 -28 -141 -49 -12 -12 -105 -38 -305
-84 -265 -60 -290 -64 -311 -51 -21 14 -30 14 -87 -1 -111 -27 -178 -35 -239
-25 -72 12 -180 3 -187 -15 -7 -19 -69 -18 -77 1 -8 23 -104 21 -114 -2 -11
-29 -36 -21 -42 12 -4 22 -11 31 -27 33 -17 3 -23 10 -23 30 0 36 -9 48 -45
56 -26 7 -27 9 -12 17 23 13 47 62 47 96 0 87 -110 149 -190 108 -61 -32 -85
-92 -58 -150 10 -22 8 -29 -15 -53 -15 -16 -27 -36 -27 -45 0 -9 -4 -17 -10
-17 -6 0 -11 94 -13 248 l-2 247 -3 -258z m2920 111 c-7 -7 -12 -29 -12 -49 0
-24 -5 -39 -16 -43 -29 -11 -42 -7 -37 12 7 29 -22 47 -53 33 -19 -8 -25 -17
-22 -37 3 -24 0 -27 -38 -30 -41 -4 -42 -3 -47 33 -4 20 -5 38 -4 39 1 1 54
13 117 27 63 14 117 25 120 26 2 1 -1 -4 -8 -11z m42 -63 c5 -22 4 -26 -4 -15
-5 8 -10 24 -10 34 0 26 6 18 14 -19z m-2730 -39 c18 -8 41 -24 50 -37 19 -27
22 -49 4 -31 -20 20 -101 15 -115 -7 -13 -22 -79 -62 -87 -54 -10 10 -7 73 4
93 13 24 57 49 88 50 12 0 38 -6 56 -14z m2436 -1 c0 -8 -3 -15 -7 -15 -19 0
-602 -144 -630 -155 -30 -13 -33 -12 -38 6 -4 11 -5 22 -3 24 1 2 136 34 298
71 162 37 309 70 325 74 46 12 55 11 55 -5z m165 5 c3 -5 -1 -10 -10 -10 -9 0
-13 5 -10 10 3 6 8 10 10 10 2 0 7 -4 10 -10z m-880 -172 c1 -27 -4 -48 -10
-48 -5 -1 -46 -7 -89 -15 -44 -8 -83 -12 -88 -9 -13 8 -9 72 5 81 18 12 139
41 162 40 17 -2 20 -9 20 -49z m-1684 12 c-25 -21 -76 -27 -86 -10 -4 6 7 10
27 10 18 0 40 5 48 10 27 17 36 10 11 -10z m1459 -58 c0 -15 -50 -30 -322 -98
-211 -53 -325 -77 -330 -70 -19 28 18 41 308 107 163 38 302 70 308 73 23 9
36 5 36 -12z m-1660 -23 c0 -11 -4 -17 -10 -14 -5 3 -10 13 -10 21 0 8 5 14
10 14 6 0 10 -9 10 -21z m180 0 c0 -20 -4 -21 -52 -15 -29 3 -65 6 -80 6 -20
0 -26 4 -22 15 5 11 24 15 80 15 69 0 74 -1 74 -21z m53 -11 c4 -12 4 -25 1
-28 -3 -3 -60 -8 -127 -11 -67 -3 -130 -9 -139 -14 -13 -5 -18 -3 -18 8 0 20
52 29 158 26 82 -2 87 -1 90 19 4 29 28 28 35 0z m32 -68 c3 -6 -36 -10 -101
-12 -95 -3 -108 -5 -118 -23 -25 -45 -48 -46 -44 -2 3 28 7 33 38 38 58 10
218 10 225 -1z m724 -9 c-50 -40 -18 -152 52 -181 26 -11 32 -11 41 1 8 12 9
12 5 -1 -2 -10 -19 -16 -49 -18 -37 -2 -51 2 -77 24 -40 34 -61 74 -61 117 0
39 11 51 60 65 51 15 55 14 29 -7z m-784 -21 c-28 -12 -75 -12 -75 0 0 6 21
10 48 9 35 0 42 -3 27 -9z m228 3 c-13 -2 -33 -2 -45 0 -13 2 -3 4 22 4 25 0
35 -2 23 -4z m212 -3 c-3 -5 -22 -10 -41 -10 -21 0 -33 4 -29 10 3 6 22 10 41
10 21 0 33 -4 29 -10z m68 3 c-7 -2 -21 -2 -30 0 -10 3 -4 5 12 5 17 0 24 -2
18 -5z m167 -42 c0 -51 15 -89 46 -122 29 -31 24 -37 -38 -45 -50 -7 -62 4
-91 86 -31 90 -31 98 5 109 67 19 78 15 78 -28z m-986 13 c13 -33 5 -54 -24
-69 l-30 -16 0 40 c0 28 5 43 18 50 24 14 29 13 36 -5z m816 -34 c0 -22 -5
-40 -11 -40 -6 0 -31 15 -57 33 l-47 32 50 6 c28 3 53 7 58 7 4 1 7 -16 7 -38z
m65 -50 c9 -30 26 -67 37 -82 l19 -28 -35 0 c-19 0 -37 4 -40 9 -11 17 -23
130 -18 163 6 37 5 38 37 -62z m-185 48 l35 -30 -35 6 c-103 20 -259 36 -370
37 -193 3 -79 16 145 17 l190 1 35 -31z m397 10 c-3 -8 -6 -5 -6 6 -1 11 2 17
5 13 3 -3 4 -12 1 -19z m-414 -46 c60 -11 110 -22 112 -24 2 -2 -32 -50 -76
-106 -75 -96 -82 -102 -117 -103 -452 -8 -751 -18 -766 -24 -18 -8 -18 -4 -12
61 12 113 9 109 99 145 45 18 99 40 119 50 l37 19 91 -116 c51 -63 94 -113 97
-111 2 3 -22 38 -54 79 -95 117 -113 144 -105 152 15 16 462 -2 575 -22z m621
-34 c3 -7 7 -48 9 -91 l6 -79 -27 7 c-37 9 -52 32 -52 81 0 24 -4 54 -10 68
-9 25 -8 26 31 26 23 0 41 -5 43 -12z m-531 -114 c-59 -48 -115 -87 -107 -73
5 8 36 50 69 92 l60 77 3 -37 c3 -30 -2 -40 -25 -59z m-973 32 c0 -31 -10 -56
-21 -56 -10 0 -12 63 -2 73 13 14 23 6 23 -17z m-52 -28 c-2 -23 -9 -43 -15
-46 -14 -4 -17 27 -7 66 10 38 25 24 22 -20z m22 -77 c0 -11 -25 -21 -56 -21
-36 0 -29 18 9 23 17 2 35 5 40 5 4 1 7 -2 7 -7z m1875 -91 c92 -1 45 -17 -67
-23 -94 -5 -98 -5 -98 15 0 19 4 20 53 14 28 -3 79 -6 112 -6z m-185 -16 c0
-11 -5 -14 -16 -10 -9 3 -32 6 -52 7 -30 0 -33 2 -17 9 36 15 85 12 85 -6z
m-559 -81 l82 -78 -199 -6 -199 -6 -45 25 c-96 54 -154 83 -137 69 9 -8 17
-17 17 -21 0 -3 -75 -5 -167 -5 -93 1 -157 4 -143 6 14 2 68 11 120 19 52 8
122 21 155 29 93 21 260 40 377 43 l56 2 83 -77z m299 66 c63 -6 246 -13 405
-17 l290 -7 66 -47 c36 -26 77 -52 90 -58 23 -10 22 -10 -6 -5 -61 9 -478 27
-508 21 -29 -5 -34 -2 -47 27 -8 17 -28 38 -44 46 -26 12 -33 12 -55 0 -22
-12 -26 -23 -29 -67 l-3 -52 -157 0 -157 1 -90 84 -90 85 110 -1 c61 0 162 -5
225 -10z m-1010 -45 c-134 -21 -451 -56 -457 -50 -3 3 -3 11 0 19 4 11 48 17
184 26 98 7 189 13 203 15 14 2 54 3 90 3 l65 1 -85 -14z m1912 -45 c58 -56
61 -60 33 -54 -16 3 -47 18 -69 33 -21 15 -57 39 -79 55 l-41 27 47 0 c43 0
51 -4 109 -61z m-2382 22 c0 -15 -30 -41 -46 -41 -20 0 -17 38 4 43 30 8 42 7
42 -2z m1718 -2 c-21 -12 -23 -40 -6 -57 17 -17 36 -15 41 6 4 16 5 16 6 0 1
-23 -29 -38 -56 -27 -18 6 -23 16 -23 42 0 39 6 47 34 47 19 -1 19 -2 4 -11z
m-2048 -3 c0 -11 -19 -15 -25 -6 -3 5 1 10 9 10 9 0 16 -2 16 -4z m244 -20
c-8 -20 -11 -21 -219 -41 -93 -9 -206 -21 -250 -25 -44 -5 -81 -7 -83 -5 -1 1
2 14 9 28 7 16 22 27 41 31 52 10 97 7 105 -8 7 -13 32 -12 178 5 94 11 181
23 195 28 30 10 32 9 24 -13z m882 -67 c44 -29 92 -57 107 -64 l28 -12 -25
-30 c-25 -30 -26 -30 -183 -42 -294 -22 -457 -31 -603 -30 l-145 0 28 20 c34
26 38 86 7 114 -11 10 -17 22 -14 26 3 5 0 9 -6 9 -8 0 -8 6 -1 18 14 25 174
39 477 41 l251 1 79 -51z m-826 1 c0 -11 -5 -20 -11 -20 -16 0 -50 -85 -43
-107 4 -10 14 -26 22 -35 14 -17 12 -18 -34 -18 -27 0 -73 3 -101 6 l-53 7 0
82 0 82 83 10 c132 16 137 16 137 -7z m-230 -90 l0 -80 -62 0 c-35 0 -134 3
-220 7 l-157 6 24 47 c13 25 29 51 37 57 12 10 243 39 336 42 l42 1 0 -80z
m268 23 c24 -33 5 -83 -31 -83 -43 0 -57 32 -37 84 7 19 15 24 32 21 13 -3 29
-12 36 -22z m1163 -31 c-8 -15 -27 -20 -87 -25 -99 -9 -174 -9 -174 0 0 3 7
15 17 25 14 15 33 18 135 18 112 0 118 -1 109 -18z m279 -2 c-8 -6 -70 -10
-137 -10 -94 0 -121 3 -118 13 4 9 38 11 137 9 86 -2 127 -6 118 -12z m220
-50 c48 -25 184 -150 173 -160 -4 -3 -93 -4 -196 -1 l-188 6 -37 44 c-20 24
-63 61 -95 82 l-59 38 64 4 c35 2 116 4 181 5 101 2 123 -1 157 -18z m737 14
c16 -3 40 -14 53 -24 25 -19 24 -19 -23 -2 -48 17 -49 17 -66 -4 l-17 -21 -28
22 c-20 16 -24 24 -15 28 19 8 61 8 96 1z m-138 -21 l25 -6 -23 -9 c-31 -11
-19 -24 36 -37 29 -8 61 -25 81 -44 28 -28 41 -32 87 -33 32 0 63 -7 77 -17
21 -15 2 -16 -279 -16 -191 -1 -304 3 -308 9 -3 6 1 10 9 10 9 0 16 5 16 10 0
6 -4 10 -10 10 -5 0 -10 5 -10 11 0 18 -52 80 -81 95 -36 18 -84 18 -102 0
-13 -13 -19 -12 -48 11 l-34 25 270 -6 c149 -3 281 -9 294 -13z m550 -9 c81
-21 169 -66 226 -118 l50 -45 -172 -1 -172 0 -33 29 c-18 15 -75 54 -126 86
-50 31 -95 62 -99 67 -9 15 254 0 326 -18z m-1550 2 c9 -11 -22 -17 -177 -35
-288 -33 -357 -39 -642 -55 -445 -25 -609 -29 -905 -21 -242 6 -284 9 -274 21
9 12 87 14 438 14 511 0 972 25 1356 75 138 17 190 18 204 1z m1172 -23 c34
-20 44 -40 28 -59 -16 -20 -39 -17 -39 4 0 22 -17 48 -25 40 -4 -3 -2 -17 5
-30 11 -22 10 -22 -4 -4 -18 23 -21 66 -5 66 6 0 24 -8 40 -17z m-596 -3 c-3
-6 -3 -20 1 -33 7 -21 7 -21 14 -2 6 17 7 16 12 -7 4 -24 3 -26 -13 -17 -19
10 -49 48 -49 61 0 5 9 8 21 8 11 0 17 -5 14 -10z m63 -16 c25 -17 30 -54 7
-54 -8 0 -15 7 -15 15 0 8 -4 15 -9 15 -5 0 -11 9 -14 20 -6 24 1 25 31 4z
m632 -40 c0 -8 3 -14 8 -14 4 -1 21 -12 37 -27 21 -18 23 -21 5 -9 -14 9 -35
21 -47 28 -13 6 -23 20 -23 30 0 11 5 16 10 13 6 -3 10 -13 10 -21z m-1234 -9
c-11 -8 -23 -15 -26 -15 -3 0 -16 -14 -29 -31 -18 -24 -20 -33 -11 -44 14 -17
34 -9 26 10 -7 19 5 27 22 13 11 -10 17 -9 27 5 15 21 25 22 25 2 0 -19 9 -19
30 0 16 14 17 14 13 -10 -4 -20 -10 -24 -27 -19 -28 7 -52 -20 -60 -66 -8 -43
23 -100 54 -100 26 0 74 46 88 85 10 27 11 23 7 -30 -6 -101 -46 -165 -100
-165 -31 0 -105 67 -126 114 -24 54 -24 149 0 195 10 20 34 41 57 52 47 22 55
23 30 4z m638 -64 c17 -18 17 -20 -2 -30 -11 -6 -22 -7 -26 -4 -3 3 -6 -2 -6
-13 0 -10 -13 -41 -29 -68 l-29 -49 -8 48 c-4 32 -3 54 5 64 6 9 17 28 24 44
14 32 46 36 71 8z m-988 -30 c18 -11 42 -41 58 -72 33 -67 36 -162 6 -226 -27
-60 -30 -53 -7 15 35 102 4 230 -66 272 -43 27 -69 25 -106 -6 -77 -65 -75
-240 3 -319 30 -30 86 -34 107 -9 12 15 11 16 -9 10 -65 -21 -112 43 -112 153
0 96 43 152 106 139 51 -10 82 -140 53 -225 -7 -21 -12 -41 -11 -45 1 -5 -3
-8 -8 -8 -5 0 -9 -5 -7 -11 1 -6 -10 -20 -25 -32 -24 -18 -31 -19 -67 -8 -46
13 -71 44 -95 114 -31 92 -15 187 41 244 40 39 90 44 139 14z m-476 -18 c-21
-17 -30 -32 -27 -45 3 -10 1 -16 -3 -13 -15 10 -23 -84 -11 -133 24 -93 85
-153 130 -125 9 5 26 25 39 43 12 18 22 28 22 22 0 -6 -14 -27 -31 -47 -38
-43 -74 -46 -117 -10 -53 44 -80 177 -51 252 11 30 57 83 72 83 5 0 -6 -12
-23 -27z m77 21 c-3 -3 -12 -4 -19 -1 -8 3 -5 6 6 6 11 1 17 -2 13 -5z m1003
-21 l85 -10 -65 -1 c-77 0 -112 8 -118 28 -2 10 -1 11 5 4 4 -7 46 -16 93 -21z
m1121 17 c16 -9 19 -22 19 -90 0 -79 0 -80 -25 -80 -29 0 -30 7 -11 80 16 59
14 70 -12 70 -15 0 -112 -135 -124 -172 -3 -7 -10 -8 -16 -4 -14 9 2 38 76
144 44 63 58 70 93 52z m-2486 -24 c-50 -50 -56 -156 -14 -243 32 -67 82 -71
119 -11 11 18 20 28 20 21 0 -25 -52 -73 -79 -73 -96 0 -138 232 -57 313 10 9
21 17 26 17 5 0 -2 -11 -15 -24z m400 4 c10 -11 16 -20 13 -20 -3 0 -13 9 -23
20 -10 11 -16 20 -13 20 3 0 13 -9 23 -20z m568 1 c5 -22 0 -31 -20 -31 -7 0
-13 11 -13 25 0 30 25 34 33 6z m277 -9 c0 -15 -2 -15 -10 -2 -13 20 -13 33 0
25 6 -3 10 -14 10 -23z m1091 -61 c-38 -49 -75 -98 -83 -110 -13 -21 -18 -21
-305 -21 -161 0 -293 3 -293 6 0 3 28 53 62 110 l63 104 313 0 312 0 -69 -89z
m-3009 67 c-18 -18 -15 -83 4 -99 14 -11 19 -10 35 10 21 26 24 52 8 84 -10
21 -10 21 5 3 35 -44 4 -136 -41 -122 -21 7 -43 45 -43 74 0 18 27 62 38 62 3
0 1 -5 -6 -12z m773 -8 c10 -11 16 -20 13 -20 -3 0 -13 9 -23 20 -10 11 -16
20 -13 20 3 0 13 -9 23 -20z m1420 10 c4 -6 -9 -10 -32 -9 -30 0 -34 2 -18 9
27 12 43 12 50 0z m-1965 -7 c-8 -3 -24 -13 -35 -22 -20 -16 -20 -16 -1 7 11
12 26 22 35 21 14 0 14 -1 1 -6z m281 -10 c13 -17 13 -17 -6 -3 -11 8 -22 16
-24 17 -2 2 0 3 6 3 6 0 17 -8 24 -17z m469 13 c0 -2 -8 -10 -17 -17 -16 -13
-17 -12 -4 4 13 16 21 21 21 13z m1285 -26 c20 -38 20 -159 1 -186 -13 -17
-15 -6 -18 99 -2 64 -2 117 -1 117 1 0 9 -13 18 -30z m-1990 0 c10 -11 16 -20
13 -20 -3 0 -13 9 -23 20 -10 11 -16 20 -13 20 3 0 13 -9 23 -20z m152 5 c0
-8 -4 -12 -9 -9 -5 3 -6 10 -3 15 9 13 12 11 12 -6z m646 -28 c8 -18 18 -46
22 -64 6 -28 4 -31 -14 -26 -17 4 -21 1 -21 -20 0 -33 16 -43 29 -20 16 27 2
-45 -16 -79 -17 -36 -57 -46 -83 -23 -73 66 -59 245 21 266 34 8 45 2 62 -34z
m2397 28 c0 -13 -15 -15 -102 -13 -65 2 -103 7 -105 14 -3 8 27 12 102 13 89
1 105 -1 105 -14z m58 3 c-3 -7 -13 -13 -23 -13 -10 0 -20 6 -22 13 -3 7 5 12
22 12 17 0 25 -5 23 -12z m-2364 -123 c1 -62 -28 -184 -40 -172 -2 2 3 25 12
51 16 47 16 187 0 231 -4 11 1 7 10 -10 12 -21 18 -52 18 -100z m633 88 c-3
-10 -5 -4 -5 12 0 17 2 24 5 18 2 -7 2 -21 0 -30z m105 5 c-9 -9 -12 -7 -12
12 0 19 3 21 12 12 9 -9 9 -15 0 -24z m154 22 c62 0 64 -1 62 -25 -2 -24 -4
-25 -80 -25 l-78 0 0 31 c0 24 3 30 16 25 9 -3 44 -6 80 -6z m1163 -69 c1 -51
-5 -34 -12 29 -4 36 -3 46 3 30 4 -14 8 -40 9 -59z m-2715 47 c8 -13 17 -37
21 -54 6 -32 6 -32 -29 -27 -31 4 -36 2 -36 -16 0 -28 36 -47 57 -29 14 12 15
9 9 -27 -4 -22 -14 -50 -22 -63 -12 -19 -18 -21 -35 -11 -33 17 -52 75 -47
146 6 89 49 132 82 81z m260 0 c9 -12 16 -37 16 -56 0 -29 -2 -32 -19 -22 -29
15 -32 13 -26 -17 l5 -28 -12 25 -11 25 -5 -24 c-5 -29 14 -43 51 -37 31 6 33
-1 14 -47 -31 -73 -73 -69 -102 8 -21 53 -17 131 9 169 21 33 59 34 80 4z
m344 -3 c-3 -3 -9 2 -12 12 -6 14 -5 15 5 6 7 -7 10 -15 7 -18z m1102 0 c0
-22 -4 -25 -40 -25 -36 0 -40 3 -40 25 0 23 4 25 40 25 36 0 40 -2 40 -25z
m-2163 -1 c2 -5 -6 -10 -17 -10 -11 0 -20 6 -20 12 0 14 32 12 37 -2z m219
-19 c18 -45 18 -118 -1 -155 -18 -35 -26 -37 -51 -9 -26 29 -33 140 -10 174
23 35 44 31 62 -10z m146 17 c-15 -5 -16 -130 -1 -169 6 -15 20 -39 32 -52 13
-14 16 -22 8 -19 -37 11 -56 58 -60 144 -3 91 2 120 21 108 9 -6 9 -9 0 -12z
m177 -32 c0 -9 -4 -8 -9 5 -5 11 -9 27 -9 35 0 9 4 8 9 -5 5 -11 9 -27 9 -35z
m1291 26 c0 -33 -16 -42 -30 -16 -12 23 -6 40 16 40 8 0 14 -10 14 -24z
m-1543 -18 c-3 -8 -6 -5 -6 6 -1 11 2 17 5 13 3 -3 4 -12 1 -19z m470 0 c-3
-8 -6 -5 -6 6 -1 11 2 17 5 13 3 -3 4 -12 1 -19z m40 -30 c-2 -13 -4 -5 -4 17
-1 22 1 32 4 23 2 -10 2 -28 0 -40z m818 42 c3 -5 1 -10 -4 -10 -6 0 -11 5
-11 10 0 6 2 10 4 10 3 0 8 -4 11 -10z m1875 -10 c0 -19 -7 -20 -119 -20 -104
0 -120 2 -126 18 -7 16 -8 15 -15 -3 -8 -19 -9 -19 -9 3 -1 22 0 22 134 22
128 0 135 -1 135 -20z m-3424 -68 c-11 -10 -14 3 -7 38 l6 35 3 -33 c2 -19 1
-36 -2 -40z m72 -79 c7 -12 24 -31 38 -42 17 -13 21 -21 12 -21 -40 0 -79 83
-77 164 2 51 2 51 9 -14 3 -36 12 -75 18 -87z m359 125 c-3 -8 -6 -5 -6 6 -1
11 2 17 5 13 3 -3 4 -12 1 -19z m1268 12 c3 -5 1 -10 -4 -10 -6 0 -11 5 -11
10 0 6 2 10 4 10 3 0 8 -4 11 -10z m-1895 -26 c0 -8 -5 -12 -10 -9 -6 4 -8 11
-5 16 9 14 15 11 15 -7z m387 -16 c-3 -7 -5 -2 -5 12 0 14 2 19 5 13 2 -7 2
-19 0 -25z m40 -15 c-3 -10 -5 -2 -5 17 0 19 2 27 5 18 2 -10 2 -26 0 -35z
m470 -10 c-3 -10 -5 -2 -5 17 0 19 2 27 5 18 2 -10 2 -26 0 -35z m310 -20 c-2
-16 -4 -5 -4 22 0 28 2 40 4 28 2 -13 2 -35 0 -50z m-1182 16 c-10 -15 -25
-10 -19 6 4 8 10 12 15 9 5 -3 7 -10 4 -15z m652 -41 c-2 -13 -4 -3 -4 22 0
25 2 35 4 23 2 -13 2 -33 0 -45z m238 -39 c-8 -19 -12 -25 -9 -14 4 11 9 43
13 70 5 46 6 47 9 14 2 -20 -4 -52 -13 -70z m1295 86 c0 -8 5 -15 11 -15 6 0
9 7 5 15 -4 12 3 15 30 15 28 0 35 -3 32 -17 -3 -16 -19 -18 -136 -21 -72 -1
-132 -1 -132 2 0 31 15 36 101 36 72 0 89 -3 89 -15z m1159 -7 c1 9 28 12 101
12 84 0 98 -2 94 -15 -5 -12 -27 -15 -110 -15 -101 0 -104 1 -103 23 0 21 1
21 9 2 5 -11 9 -14 9 -7z m239 0 c-3 -7 -12 -14 -21 -16 -12 -2 -15 1 -11 12
7 19 38 22 32 4z m-3221 -30 c-3 -7 -5 -2 -5 12 0 14 2 19 5 13 2 -7 2 -19 0
-25z m240 0 c-3 -7 -5 -2 -5 12 0 14 2 19 5 13 2 -7 2 -19 0 -25z m-577 7 c0
-8 -4 -15 -10 -15 -5 0 -10 7 -10 15 0 8 5 15 10 15 6 0 10 -7 10 -15z m43
-22 c-4 -10 -9 -11 -16 -4 -5 5 -7 18 -3 28 6 14 9 15 16 4 4 -8 6 -21 3 -28z
m3215 12 c-11 -24 -38 -35 -38 -16 0 8 38 41 47 41 1 0 -3 -11 -9 -25z m-2891
-17 c-3 -8 -6 -5 -6 6 -1 11 2 17 5 13 3 -3 4 -12 1 -19z m470 0 c-3 -8 -6 -5
-6 6 -1 11 2 17 5 13 3 -3 4 -12 1 -19z m2173 7 c0 -8 -4 -15 -10 -15 -5 0 -7
7 -4 15 4 8 8 15 10 15 2 0 4 -7 4 -15z m-1323 -42 c-3 -10 -5 -4 -5 12 0 17
2 24 5 18 2 -7 2 -21 0 -30z m-1610 7 c-3 -11 -1 -18 4 -14 5 3 9 1 9 -5 0
-18 -17 -21 -30 -6 -14 16 -7 45 11 45 6 0 9 -9 6 -20z m3120 -5 c0 -14 -26
-30 -35 -20 -6 5 17 35 28 35 3 0 7 -7 7 -15z m221 8 c-27 -2 -69 -2 -95 0
-27 2 -5 3 47 3 52 0 74 -1 48 -3z m-2847 -26 c-10 -9 -11 -8 -5 6 3 10 9 15
12 12 3 -3 0 -11 -7 -18z m46 1 c-3 -8 -6 -5 -6 6 -1 11 2 17 5 13 3 -3 4 -12
1 -19z m1563 12 c0 -6 -49 -10 -127 -9 -80 1 -119 4 -103 9 37 12 230 12 230
0z m-2050 -15 c13 -16 6 -50 -9 -41 -11 7 -21 56 -11 56 4 0 13 -7 20 -15z
m40 -52 c0 -15 -3 -23 -7 -19 -11 10 -11 56 -1 50 4 -3 8 -17 8 -31z m1644 22
c-7 -17 -20 -20 -28 -6 -7 10 3 21 20 21 8 0 11 -6 8 -15z m1326 11 c0 -11
-19 -15 -25 -6 -3 5 1 10 9 10 9 0 16 -2 16 -4z m188 -3 c-21 -2 -55 -2 -75 0
-21 2 -4 4 37 4 41 0 58 -2 38 -4z m-3120 -42 c3 -16 -1 -22 -10 -19 -7 3 -15
15 -16 27 -3 16 1 22 10 19 7 -3 15 -15 16 -27z m319 23 c-3 -3 -12 -4 -19 -1
-8 3 -5 6 6 6 11 1 17 -2 13 -5z m1350 0 c-3 -3 -12 -4 -19 -1 -8 3 -5 6 6 6
11 1 17 -2 13 -5z m161 -1 c-27 -2 -69 -2 -95 0 -27 2 -5 3 47 3 52 0 74 -1
48 -3z m1062 -9 c0 -2 -7 -4 -15 -4 -8 0 -15 4 -15 10 0 5 7 7 15 4 8 -4 15
-8 15 -10z m-2850 -20 c0 -8 -7 -14 -15 -14 -15 0 -21 21 -9 33 10 9 24 -2 24
-19z m690 16 c0 -5 -2 -10 -4 -10 -3 0 -8 5 -11 10 -3 6 -1 10 4 10 6 0 11 -4
11 -10z m-650 -20 c0 -11 -4 -20 -10 -20 -5 0 -10 9 -10 20 0 11 5 20 10 20 6
0 10 -9 10 -20z m50 0 c0 -11 -7 -20 -15 -20 -8 0 -15 9 -15 20 0 11 7 20 15
20 8 0 15 -9 15 -20z m50 -6 c0 -8 -7 -14 -15 -14 -8 0 -15 9 -15 20 0 13 5
18 15 14 8 -4 15 -12 15 -20z m36 -11 c-7 -17 -8 -17 -17 0 -12 21 -2 44 13
29 6 -6 8 -19 4 -29z m2604 27 c0 -5 -5 -10 -11 -10 -5 0 -7 5 -4 10 3 6 8 10
11 10 2 0 4 -4 4 -10z m248 3 c-21 -2 -55 -2 -75 0 -21 2 -4 4 37 4 41 0 58
-2 38 -4z m-2818 -23 c0 -11 -4 -20 -10 -20 -5 0 -10 9 -10 20 0 11 5 20 10
20 6 0 10 -9 10 -20z m40 0 c0 -11 -4 -20 -10 -20 -5 0 -10 9 -10 20 0 11 5
20 10 20 6 0 10 -9 10 -20z m48 -3 c2 -10 -3 -17 -12 -17 -10 0 -16 9 -16 21
0 24 23 21 28 -4z m42 -8 c0 -11 -4 -17 -10 -14 -5 3 -10 15 -10 26 0 11 5 17
10 14 6 -3 10 -15 10 -26z m1164 7 c-3 -7 -11 -13 -19 -13 -18 0 -19 9 -3 25
14 14 29 6 22 -12z m-1124 -6 c0 -11 -4 -20 -10 -20 -5 0 -10 9 -10 20 0 11 5
20 10 20 6 0 10 -9 10 -20z m53 14 c9 -10 -4 -34 -19 -34 -8 0 -14 9 -14 20 0
19 19 27 33 14z m37 -14 c0 -11 -4 -20 -10 -20 -5 0 -10 9 -10 20 0 11 5 20
10 20 6 0 10 -9 10 -20z m2230 10 c0 -5 -7 -10 -16 -10 -8 0 -12 5 -9 10 3 6
10 10 16 10 5 0 9 -4 9 -10z m-2180 -4 c0 -12 -13 -36 -20 -36 -4 0 -10 9 -13
20 -4 15 0 20 14 20 10 0 19 -2 19 -4z m40 -16 c0 -11 -7 -20 -15 -20 -8 0
-15 9 -15 20 0 11 7 20 15 20 8 0 15 -9 15 -20z m50 -6 c0 -8 -7 -14 -15 -14
-15 0 -21 21 -9 33 10 9 24 -2 24 -19z m46 -13 c-11 -17 -29 -13 -22 5 3 8 2
12 -4 9 -11 -7 -14 8 -3 19 10 10 37 -20 29 -33z m1007 32 c-23 -2 -64 -2 -90
0 -26 2 -7 3 42 3 50 0 71 -1 48 -3z m-953 -23 c0 -11 -7 -20 -15 -20 -8 0
-15 2 -15 4 0 2 -3 11 -6 20 -4 12 0 16 15 16 14 0 21 -6 21 -20z m50 0 c0
-23 -25 -27 -33 -6 -7 16 1 26 20 26 7 0 13 -9 13 -20z m57 4 c8 -21 -13 -42
-28 -27 -13 13 -5 43 11 43 6 0 13 -7 17 -16z m51 -12 c2 -14 -2 -22 -11 -22
-17 0 -30 27 -21 41 9 16 29 4 32 -19z m62 -2 c0 -13 -7 -20 -20 -20 -13 0
-20 7 -20 20 0 13 7 20 20 20 13 0 20 -7 20 -20z m53 7 c7 -19 -8 -41 -22 -33
-16 10 -14 46 3 46 8 0 16 -6 19 -13z m64 2 c9 -9 8 -15 -2 -25 -18 -18 -31
-18 -39 2 -12 30 18 46 41 23z m59 -16 c-3 -8 -6 -17 -6 -19 0 -2 -7 -4 -15
-4 -9 0 -15 9 -15 24 0 19 4 23 21 19 12 -4 18 -11 15 -20z m291 8 c11 -17 9
-21 -8 -26 -26 -9 -33 -2 -24 24 8 26 17 26 32 2z m61 7 c-6 -18 -28 -21 -28
-4 0 9 7 16 16 16 9 0 14 -5 12 -12z m-298 -23 c0 -8 -9 -15 -20 -15 -11 0
-20 7 -20 15 0 8 9 15 20 15 11 0 20 -7 20 -15z m50 -5 c0 -11 -7 -20 -15 -20
-8 0 -15 9 -15 20 0 11 7 20 15 20 8 0 15 -9 15 -20z m60 0 c0 -13 -7 -20 -20
-20 -13 0 -20 7 -20 20 0 13 7 20 20 20 13 0 20 -7 20 -20z m69 7 c14 -17 4
-27 -25 -27 -17 0 -21 4 -17 20 6 23 26 26 42 7z"/>
<path d="M2705 2212 c-26 -5 -55 -31 -55 -49 0 -27 57 -73 89 -73 41 0 66 36
52 73 -12 30 -57 55 -86 49z m-14 -53 c-9 -22 -10 -22 -10 -3 -1 11 2 24 6 27
12 12 14 0 4 -24z m63 23 c7 -12 -22 -45 -33 -37 -19 11 -13 45 8 45 11 0 22
-3 25 -8z m16 -41 c0 -23 -29 -36 -44 -20 -8 9 -8 10 1 5 7 -4 18 2 25 14 16
25 18 25 18 1z"/>
<path d="M2517 1687 c-2 -7 -2 -20 1 -29 5 -21 32 -12 32 12 0 21 -27 35 -33
17z"/>
<path d="M2522 1603 c5 -25 28 -28 28 -4 0 12 -6 21 -16 21 -9 0 -14 -7 -12
-17z"/>
<path d="M2691 1576 c-9 -10 -10 -20 -3 -32 9 -16 11 -15 22 5 15 28 -1 49
-19 27z"/>
<path d="M2557 1564 c-12 -12 -8 -36 5 -32 7 3 18 -5 24 -16 6 -12 16 -20 23
-18 7 1 19 -5 25 -14 10 -13 17 -14 34 -5 25 13 28 33 10 49 -14 10 -53 10
-64 -1 -4 -4 -12 3 -18 15 -12 23 -28 32 -39 22z"/>
<path d="M2191 1554 c-9 -25 -11 -25 -7 -4 5 24 4 24 -9 6 -19 -25 -19 -31 1
-50 18 -18 47 -20 75 -6 24 13 25 42 1 63 -24 22 -33 21 -25 0 5 -15 3 -15 -9
1 -15 19 -16 18 -27 -10z"/>
<path d="M1800 1560 c-9 -16 -8 -22 5 -27 14 -5 14 -8 3 -15 -9 -6 -5 -8 12
-6 20 2 25 8 25 33 0 36 -28 46 -45 15z"/>
<path d="M1042 1548 c4 -29 38 -38 38 -10 0 11 -7 23 -16 26 -24 9 -26 8 -22
-16z"/>
<path d="M1581 3074 c0 -11 3 -14 6 -6 3 7 2 16 -1 19 -3 4 -6 -2 -5 -13z"/>
</g>
</svg>